<mxfile host="app.diagrams.net" modified="2024-05-19T10:33:36.057Z" agent="Mozilla/5.0 (Windows NT 10.0; Win64; x64) AppleWebKit/537.36 (KHTML, like Gecko) Chrome/122.0.0.0 YaBrowser/24.4.0.0 Safari/537.36" etag="CQXBEG_HMGaufzouuPoc" version="24.4.4" type="device">
  <diagram name="Страница — 1" id="bemuc68m4TOoMwLRk0mQ">
    <mxGraphModel dx="1052" dy="547" grid="1" gridSize="10" guides="1" tooltips="1" connect="1" arrows="1" fold="1" page="1" pageScale="1" pageWidth="827" pageHeight="1169" math="0" shadow="0">
      <root>
        <mxCell id="0" />
        <mxCell id="1" parent="0" />
        <mxCell id="mTrkgZmYWL5IMyoOkg99-4" style="edgeStyle=orthogonalEdgeStyle;rounded=0;orthogonalLoop=1;jettySize=auto;html=1;entryX=0.5;entryY=0;entryDx=0;entryDy=0;" edge="1" parent="1" source="mTrkgZmYWL5IMyoOkg99-1" target="mTrkgZmYWL5IMyoOkg99-2">
          <mxGeometry relative="1" as="geometry" />
        </mxCell>
        <mxCell id="mTrkgZmYWL5IMyoOkg99-1" value="&lt;font style=&quot;font-size: 18px;&quot;&gt;Start&lt;/font&gt;" style="ellipse;whiteSpace=wrap;html=1;" vertex="1" parent="1">
          <mxGeometry x="350" y="30" width="120" height="40" as="geometry" />
        </mxCell>
        <mxCell id="mTrkgZmYWL5IMyoOkg99-22" style="edgeStyle=orthogonalEdgeStyle;rounded=0;orthogonalLoop=1;jettySize=auto;html=1;entryX=0.5;entryY=0;entryDx=0;entryDy=0;" edge="1" parent="1" source="mTrkgZmYWL5IMyoOkg99-2" target="mTrkgZmYWL5IMyoOkg99-21">
          <mxGeometry relative="1" as="geometry" />
        </mxCell>
        <mxCell id="mTrkgZmYWL5IMyoOkg99-2" value="&lt;font style=&quot;font-size: 18px;&quot;&gt;Array [ ]&lt;/font&gt;&lt;div&gt;&lt;font size=&quot;3&quot;&gt;newArray [ ]&lt;/font&gt;&lt;/div&gt;" style="shape=parallelogram;perimeter=parallelogramPerimeter;whiteSpace=wrap;html=1;fixedSize=1;" vertex="1" parent="1">
          <mxGeometry x="350" y="110" width="120" height="60" as="geometry" />
        </mxCell>
        <mxCell id="mTrkgZmYWL5IMyoOkg99-8" style="edgeStyle=orthogonalEdgeStyle;rounded=0;orthogonalLoop=1;jettySize=auto;html=1;entryX=0.5;entryY=0;entryDx=0;entryDy=0;" edge="1" parent="1" source="mTrkgZmYWL5IMyoOkg99-5" target="mTrkgZmYWL5IMyoOkg99-7">
          <mxGeometry relative="1" as="geometry" />
        </mxCell>
        <mxCell id="mTrkgZmYWL5IMyoOkg99-34" style="edgeStyle=orthogonalEdgeStyle;rounded=0;orthogonalLoop=1;jettySize=auto;html=1;entryX=1;entryY=0.5;entryDx=0;entryDy=0;" edge="1" parent="1" source="mTrkgZmYWL5IMyoOkg99-5" target="mTrkgZmYWL5IMyoOkg99-31">
          <mxGeometry relative="1" as="geometry">
            <Array as="points">
              <mxPoint x="640" y="300" />
              <mxPoint x="640" y="680" />
            </Array>
          </mxGeometry>
        </mxCell>
        <mxCell id="mTrkgZmYWL5IMyoOkg99-5" value="&lt;font style=&quot;font-size: 18px;&quot;&gt;i=0; i &amp;lt; Array.Length; i++&lt;/font&gt;" style="shape=hexagon;perimeter=hexagonPerimeter2;whiteSpace=wrap;html=1;fixedSize=1;" vertex="1" parent="1">
          <mxGeometry x="290" y="280" width="240" height="40" as="geometry" />
        </mxCell>
        <mxCell id="mTrkgZmYWL5IMyoOkg99-10" style="edgeStyle=orthogonalEdgeStyle;rounded=0;orthogonalLoop=1;jettySize=auto;html=1;entryX=0.5;entryY=0;entryDx=0;entryDy=0;" edge="1" parent="1" source="mTrkgZmYWL5IMyoOkg99-7" target="mTrkgZmYWL5IMyoOkg99-9">
          <mxGeometry relative="1" as="geometry">
            <Array as="points">
              <mxPoint x="410" y="460" />
              <mxPoint x="410" y="460" />
            </Array>
          </mxGeometry>
        </mxCell>
        <mxCell id="mTrkgZmYWL5IMyoOkg99-11" value="&lt;font style=&quot;font-size: 14px;&quot;&gt;Yes&lt;/font&gt;" style="edgeLabel;html=1;align=center;verticalAlign=middle;resizable=0;points=[];" vertex="1" connectable="0" parent="mTrkgZmYWL5IMyoOkg99-10">
          <mxGeometry x="-0.28" relative="1" as="geometry">
            <mxPoint as="offset" />
          </mxGeometry>
        </mxCell>
        <mxCell id="mTrkgZmYWL5IMyoOkg99-26" style="edgeStyle=orthogonalEdgeStyle;rounded=0;orthogonalLoop=1;jettySize=auto;html=1;entryX=1;entryY=0.5;entryDx=0;entryDy=0;" edge="1" parent="1" source="mTrkgZmYWL5IMyoOkg99-7" target="mTrkgZmYWL5IMyoOkg99-24">
          <mxGeometry relative="1" as="geometry">
            <Array as="points">
              <mxPoint x="600" y="400" />
              <mxPoint x="600" y="595" />
            </Array>
          </mxGeometry>
        </mxCell>
        <mxCell id="mTrkgZmYWL5IMyoOkg99-27" value="&lt;font style=&quot;font-size: 14px;&quot;&gt;No&lt;/font&gt;" style="edgeLabel;html=1;align=center;verticalAlign=middle;resizable=0;points=[];" vertex="1" connectable="0" parent="mTrkgZmYWL5IMyoOkg99-26">
          <mxGeometry x="-0.2284" y="2" relative="1" as="geometry">
            <mxPoint as="offset" />
          </mxGeometry>
        </mxCell>
        <mxCell id="mTrkgZmYWL5IMyoOkg99-7" value="&lt;font style=&quot;font-size: 18px;&quot;&gt;Array[i].Length &amp;lt;=3&lt;/font&gt;" style="rhombus;whiteSpace=wrap;html=1;" vertex="1" parent="1">
          <mxGeometry x="296.5" y="360" width="227" height="80" as="geometry" />
        </mxCell>
        <mxCell id="mTrkgZmYWL5IMyoOkg99-25" style="edgeStyle=orthogonalEdgeStyle;rounded=0;orthogonalLoop=1;jettySize=auto;html=1;" edge="1" parent="1" source="mTrkgZmYWL5IMyoOkg99-9" target="mTrkgZmYWL5IMyoOkg99-24">
          <mxGeometry relative="1" as="geometry" />
        </mxCell>
        <mxCell id="mTrkgZmYWL5IMyoOkg99-9" value="&lt;font style=&quot;font-size: 18px;&quot;&gt;newArray[i] = Array[i]&lt;/font&gt;" style="rounded=0;whiteSpace=wrap;html=1;" vertex="1" parent="1">
          <mxGeometry x="310" y="500" width="200" height="40" as="geometry" />
        </mxCell>
        <mxCell id="mTrkgZmYWL5IMyoOkg99-23" style="edgeStyle=orthogonalEdgeStyle;rounded=0;orthogonalLoop=1;jettySize=auto;html=1;entryX=0.5;entryY=0;entryDx=0;entryDy=0;" edge="1" parent="1" source="mTrkgZmYWL5IMyoOkg99-21" target="mTrkgZmYWL5IMyoOkg99-5">
          <mxGeometry relative="1" as="geometry" />
        </mxCell>
        <mxCell id="mTrkgZmYWL5IMyoOkg99-21" value="&lt;font style=&quot;font-size: 18px;&quot;&gt;count = 0&lt;/font&gt;" style="rounded=0;whiteSpace=wrap;html=1;" vertex="1" parent="1">
          <mxGeometry x="350" y="210" width="120" height="30" as="geometry" />
        </mxCell>
        <mxCell id="mTrkgZmYWL5IMyoOkg99-28" style="edgeStyle=orthogonalEdgeStyle;rounded=0;orthogonalLoop=1;jettySize=auto;html=1;entryX=0;entryY=0.5;entryDx=0;entryDy=0;" edge="1" parent="1" source="mTrkgZmYWL5IMyoOkg99-24" target="mTrkgZmYWL5IMyoOkg99-5">
          <mxGeometry relative="1" as="geometry">
            <Array as="points">
              <mxPoint x="230" y="595" />
              <mxPoint x="230" y="300" />
            </Array>
          </mxGeometry>
        </mxCell>
        <mxCell id="mTrkgZmYWL5IMyoOkg99-24" value="&lt;font style=&quot;font-size: 18px;&quot;&gt;count++&lt;/font&gt;" style="rounded=0;whiteSpace=wrap;html=1;" vertex="1" parent="1">
          <mxGeometry x="350" y="580" width="120" height="30" as="geometry" />
        </mxCell>
        <mxCell id="mTrkgZmYWL5IMyoOkg99-33" style="edgeStyle=orthogonalEdgeStyle;rounded=0;orthogonalLoop=1;jettySize=auto;html=1;entryX=0.5;entryY=0;entryDx=0;entryDy=0;" edge="1" parent="1" source="mTrkgZmYWL5IMyoOkg99-31" target="mTrkgZmYWL5IMyoOkg99-32">
          <mxGeometry relative="1" as="geometry" />
        </mxCell>
        <mxCell id="mTrkgZmYWL5IMyoOkg99-31" value="&lt;font style=&quot;font-size: 18px;&quot;&gt;Print newArray&lt;/font&gt;" style="shape=document;whiteSpace=wrap;html=1;boundedLbl=1;" vertex="1" parent="1">
          <mxGeometry x="350" y="640" width="120" height="80" as="geometry" />
        </mxCell>
        <mxCell id="mTrkgZmYWL5IMyoOkg99-32" value="&lt;font style=&quot;font-size: 18px;&quot;&gt;Finish&lt;/font&gt;" style="ellipse;whiteSpace=wrap;html=1;" vertex="1" parent="1">
          <mxGeometry x="350" y="750" width="120" height="40" as="geometry" />
        </mxCell>
      </root>
    </mxGraphModel>
  </diagram>
</mxfile>
